<?xml version="1.0" encoding="UTF-8"?>
<svg width="535" height="535" version="1.1" viewBox="0 0 501.56 501.56" xml:space="preserve" xmlns="http://www.w3.org/2000/svg" xmlns:xlink="http://www.w3.org/1999/xlink"><g transform="translate(-156.41 933.31)"><g transform="translate(8.3425e-7 .044304)" opacity=".8"><path id="a" d="m451.21-770.38-244.4-0.012 27.621-48.894 65.558 0.18172-32.557-56.734 13.96-24.157 28.526-0.0314 46.298 80.779 66.689 0.13524z" color="#000000" color-rendering="auto" fill-rule="evenodd" image-rendering="auto" shape-rendering="auto" solid-color="#000000" style="isolation:auto;mix-blend-mode:normal"/><g id="e"><use id="b" transform="rotate(240 407.25 -682.85)" fill="#715b64" xlink:href="#a"/><use transform="rotate(240 407.2 -682.64)" xlink:href="#b"/><use transform="rotate(120 407.25 -682.85)" xlink:href="#b"/></g><g id="f"><use id="d" transform="rotate(-60 407.62 -682.8)" fill="#545e75" xlink:href="#a"/><use id="c" transform="rotate(239.7 406.82 -682.12)" xlink:href="#d"/><use transform="rotate(240 407.43 -682.82)" xlink:href="#c"/></g></g><g transform="matrix(.70917 0 0 .67331 608.68 -185.39)"><g fill-rule="evenodd" stroke-width=".9375"><path d="m-118.67-985.78c11.902-0.0281 20.072 0.87249 27.188 8.4375 5.2641 5.2238 10.441 12.215 11.25 22.5 1.2966 16.473-5.4703 30.767-12.188 40.312-1.6153 2.295-2.4675 5.0016-3.75 6.5625-20.837 25.343-57.995 33.158-90.938 35.625 23.487-9.6562 51.59-24.355 67.5-47.812 5.7225-8.4375 14.795-24.59 12.188-42.188-1.4344-9.7162-7.6781-14.219-11.25-23.44z" fill="#fff"/><path d="m-404.61-824.52h2.8125c5.2106 12.149 21.609 17.531 35.625 17.812-0.64125 3.2738-6.1988 2.01-9.375 1.875-4.0697-0.17343-9.6141-1.1288-13.125-1.875-2.2875-0.48656-6.1369-1.2591-7.5-1.875-4.0566-1.8328-7.3003-7.3856-9.375-12.188-0.1125-1.6875 1.1531-1.9781 0.9375-3.75z"/><path d="m-323.05-841.4c0.84938 3.5606 2.0025 10.642 1.875 12.188-148.97 14.068 94.093 34.068 109.69 7.5-3.0195-6.9462-39.411-13.021-56.25-10.312 16.988 2.0738 35.384 2.7412 48.75 8.4375-15.719-2.1788-43.729-2.1441-56.25-5.625 0.0759-5.5491 3.6459-7.6041 6.5625-10.312 12.231-0.5325 26.77 0.13782 38.438 2.8125 11.968 2.7441 35.948 9.6919 35.625 20.625-0.0188 0.62344-1.7428 5.4309-1.875 5.625-3.1312 4.6078-12.3 5.8631-16.875 9.375 0.19219 4.1822 6.8353 1.9144 7.5 5.625 0.80344 9.9731-4.3397 20.934-5.625 33.75 5.8397-5.0981 5.9194-15.955 8.4375-24.375 4.5788-5.64 11.226-6.0834 19.688-3.75 15.497 12.571 20.15 32.175 11.25 50.625-3.3009 6.8438-6.6731 10.763-11.25 16.875-10.265 13.706-26.915 27.073-42.188 36.562-5.7141 9.9103-10.209 21.04-23.438 23.438-1.5112 8.8012-3.9188 16.706-7.5 23.438-18.974 9.1678-60.385 10.552-82.5 2.8125-7.7353-2.7075-12.368-5.5744-15.938-12.188-0.47344-34.286-13.25-57.363-22.5-85.312-7.3828-22.306-15.2-44.158-23.438-65.625-4.6828-5.9419-11.704-9.9971-13.125-18.75-0.0623-4.4038 2.5402-6.8835 5.625-9.375 23.428-9.7031 54.309-11.944 85.312-14.062z" fill="#fff"/><path d="m-397.11-807.65c38.878 17.482 106.58 13.645 154.69 11.25-20.36 6.9534-53.086 6.4725-84.375 6.5625-10.679 0.0309-22.546-1.8816-34.688-3.75-15.628-2.4094-33.188-1.5844-35.625-14.062z" fill="#4d4d4d"/></g><g fill="#fff" fill-rule="evenodd" stroke-width=".9375"><path d="m-185.24-662.34c-9.5894 4.808-16.973 10.951-24.691 17.747-4.2298 3.7244-9.5188 5.6755-12.934 7.5339-4.5824 2.4939-6.6106 2.2762-12.063 3.7818-4.1944 1.1578-13.597 3.1716-20.625 3.75 8.0147-5.4225 14.862-12.012 15-25.312 11.035-0.72281 19.387 1.2384 30 0.9375 0.76875-9.5184-11.777-5.7234-18.75-7.5-0.89906-2.8538 3.9028-7.0622 4.6875-11.25 14.494 2.0719 27.975 5.1469 39.375 10.312z"/><path d="m-135.55-945.46c-6.4266 2.0794-10.212 8.1591-15 12.188-13.821 11.626-29.921 22.018-52.5 26.25-21.686 10.117-52.224 9.3984-73.125 19.688-4.8019 2.3634-8.145 6.9825-13.125 8.4375-4.4466 7.7728-13.768 15.575-15.938 28.125-1.5 8.6747-1.8797 20.33 0 28.125 0.77719 3.2231 4.4447 6.5981 1.875 9.375-9.0572-0.0263-13.733-14.103-15-22.5-1.8984-12.592 4.4831-23.977 6.5625-32.812 2.4412-10.373 11.366-19.162 18.75-26.25 4.4634-4.2834 10.245-5.4844 17.812-9.375 8.7225-4.485 15.562-8.7488 27.188-12.188 23.236-6.8738 52.472-12.818 73.125-23.438 11.677-6.0038 19.12-15.404 28.125-23.438 4.7297-8.6316 12.123-21.819 9.375-40.312-1.0697-7.1954-5.0916-14.118-9.375-17.812 2.715-0.81 6.9938 1.9134 9.375 3.75 3.2456 2.5031 12.936 14.052 14.062 18.75 4.3153 17.983-4.9931 34.349-8.4375 47.812 6.42-4.8309 8.6438-13.856 10.312-23.438 10.722 11.144 2.9409 41.034-5.625 54.375-4.2112 6.5597-11.347 13.549-17.812 19.688-9.8962 9.3947-26.818 17.434-41.25 23.438-18.677 7.77-40.779 9.4781-59.062 16.875 9.7669-12.189 27.331-16.08 42.188-24.375 2.5734-1.4362 6.6534-4.4925 10.312-6.5625 8.8978-5.0334 17.558-10.101 26.25-15.938 12.628-8.4844 26.569-20.7 30.938-38.44z"/><path d="m-161.8-917.34c-9.2391 12.377-35.048 25.155-53.438 33.75-11.216 5.2416-23.075 11.949-33.75 17.812-10.941 7.4962-19.377 17.498-29.062 26.25-0.54562 5.7047-5.1562 13.012-0.9375 17.812-2.0147 1.9528-3.8484-4.2291-5.625-5.625-0.66187-6.3412 0.13219-11.933 1.875-16.875 6.435-18.248 23.563-30.577 42.188-38.438 25.959-10.959 56.944-19.491 78.75-34.688z"/><path d="m-234.92-607.96c-6.8334 8.2781-25.72 7.0416-42.188 8.4375-25.019 2.1206-52.036 1.9903-77.812-1.875-14.493-2.1731-29.168-5.9728-41.25-11.25 4.3762-2.2809 10.099-0.0694 15 0.9375 29.089 5.9775 74.425 9.6609 113.44 7.5 11.062-0.61875 24.759-1.7812 32.812-3.75z"/></g><path d="m-155.09-1030.8c-5.864 0.4417-12.23 2.7977-13.27 10.386 5.9456-2.6738 12.222 0.3515 16.875 1.875 8.5547 9.6675 11.21 26.516 5.625 37.5-5.1272 10.083-14.249 17.114-24.375 25.544-14.551 10.673-16.244 8.9193-37.5 17.581-18.324 8.5941-39.858 9.5709-57.188 16.875-10.866 4.5797-22.483 10.791-31.875 17.812-8.8856 6.6441-16.705 18.001-21.562 30.938-2.5781 6.8644-3.8156 13.189-4.6875 23.438-34.922 4.7653-76.94 2.4356-95.625 23.438-1.4625 15.837 4.8112 23.939 11.25 31.875 6.3525 17.746 11.014 36.008 16.875 53.438 5.8903 17.515 14.152 33.592 19.688 50.625-22.756 1.8347-54.434 4.7869-76.875 14.062-11.803 4.8788-21.554 10.06-21.562 22.5 1.0362 7.3735 1.4486 7.4828 3.75 11.252 7.5197 7.4803 16.331 13.669 27.188 17.812 11.527 4.3327 25.307 6.8666 31.998 10.929 6.6909 4.0627 11.169 10.018 17.69 12.508 6.6384 2.5359 14.724 2.4834 22.5 3.75 21.31 3.4706 36.336 6.1761 62.379 4.9639 13.188-1.145 39.719-3.8736 49.183-4.9639 6.9274-0.79774 40.699-9.427 51.347-15.154 6.2675-3.3708 15.733-10.179 21.822-16.939 6.0893-6.7601 14.411-23.337 6.9783-32.148-7.4331-8.8106-14.654-9.5692-25.77-13.097s-12.398-2.4542-17.815-6.1002c0.65813-2.3241 2.7816-2.4975 4.6875-3.75 10.584-6.9534 26.113-21.67 35.625-32.812 8.0512-9.4303 16.152-23.144 17.812-33.75 4.3978-28.094-10.342-42.892-31.875-49.688 20.984-36.158-34.226-43.486-64.688-47.812 1.2825-3.405 4.0143-3.939 8.4375-5.625 43.791-13.085 107.43-6.3234 138.75-31.875 0.79781-0.1725 17.246-13.658 17.3-13.087 14.217-14.089 27.841-48.726 20.2-68.478-5.0391-13.028-13.306-18.299-25.307-22.973-9.0431-1.4512-13.667-2.3015-20.63-2.3399v-4e-3c-1.2656-4.4597-1.7906-9.3685-3.75-14.059-4.3912-10.522-14.584-23.083-28.125-24.375-1.6273-0.1554-3.5257-0.2205-5.4804-0.073zm10.569 9.4373c2.4604 0.5103 5.3131 2.3854 7.099 3.7628 3.2456 2.5031 12.936 14.052 14.062 18.75 4.3153 17.983-4.9931 34.349-8.4375 47.812 6.42-4.8309 8.6438-13.856 10.312-23.438 10.722 11.144 2.9409 41.034-5.625 54.375-4.2112 6.5597-11.347 13.549-17.812 19.688-9.8962 9.3947-26.818 17.434-41.25 23.438-18.677 7.77-40.779 9.4781-59.062 16.875 9.7669-12.189 27.331-16.08 42.188-24.375 2.5734-1.4362 6.6534-4.4925 10.312-6.5625 8.8978-5.0334 17.558-10.101 26.25-15.938 12.628-8.4844 26.569-20.7 30.938-38.438-6.4266 2.0794-10.212 8.1591-15 12.188-13.821 11.626-29.921 22.018-52.5 26.25-21.686 10.117-52.224 9.3984-73.125 19.688-4.8019 2.3634-8.145 6.9825-13.125 8.4375-4.4466 7.7728-13.768 15.575-15.938 28.125-1.5 8.6747-1.8797 20.33 0 28.125 0.77719 3.2231 4.4447 6.5981 1.875 9.375-9.0572-0.0263-13.733-14.103-15-22.5-1.8984-12.592 4.4831-23.977 6.5625-32.812 2.4412-10.373 11.366-19.162 18.75-26.25 4.4634-4.2834 10.245-5.4844 17.812-9.375 8.7225-4.485 15.562-8.7488 27.188-12.188 23.236-6.8738 52.472-12.818 73.125-23.438 11.677-6.0038 19.12-15.404 28.125-23.438 4.7297-8.6316 12.123-21.819 9.375-40.313-1.0697-7.1953-5.0916-14.118-9.375-17.812 0.67875-0.2025 1.4559-0.1829 2.276-0.013zm25.849 35.636c11.902-0.0281 17.735 0.87249 27.188 8.4375 5.2641 5.2238 10.441 12.215 11.25 22.5 1.2442 17.154-6.4798 33.072-15.938 46.875-20.837 25.343-57.995 33.158-90.938 35.625 23.487-9.6562 51.59-24.355 67.5-47.812 5.7225-8.4375 14.795-24.59 12.188-42.188v-4e-3c-1.4344-9.7134-7.6781-14.215-11.25-23.434zm-43.125 68.439c-9.2391 12.377-35.048 25.155-53.438 33.75-11.216 5.2416-23.075 11.949-33.75 17.812-10.941 7.4962-19.377 17.498-29.062 26.25-0.54562 5.7047-5.1562 13.012-0.9375 17.812-2.0147 1.9528-3.8484-4.2291-5.625-5.625-0.66187-6.3412 0.13219-11.933 1.875-16.875 6.435-18.248 23.563-30.577 42.188-38.438 25.959-10.959 56.944-19.491 78.75-34.688zm-161.25 75.938c0.84938 3.5606 2.0025 10.642 1.875 12.188-22.893 2.1619-47.549 0.70313-62.812 8.4375-5.7431 1.3688-0.98906 6.4875 6.5625 8.4375 13.29 3.4312 29.663 2.6803 46.875 3.75 33.546 2.0841 72.215 3.6684 97.5-1.875 8.6606-1.8984 17.63-4.5497 21.562-11.25-2.0409-4.695-8.7497-5.2631-14.062-6.5625-12.052-2.9484-28.379-5.9709-42.188-3.75 16.988 2.0738 35.384 2.7412 48.75 8.4375-15.719-2.1788-43.729-2.1441-56.25-5.625 0.0759-5.5491 3.6459-7.6041 6.5625-10.312 12.231-0.5325 26.77 0.13782 38.438 2.8125 11.968 2.7441 35.948 9.6919 35.625 20.625-0.0188 0.62344-1.7428 5.4309-1.875 5.625-3.1312 4.6078-12.3 5.8631-16.875 9.375 0.19219 4.1822 6.8353 1.9144 7.5 5.625 0.80344 9.9731-4.3397 20.934-5.625 33.75 5.8397-5.0981 5.9194-15.955 8.4375-24.375 4.5788-5.64 11.226-6.0834 19.688-3.75 15.497 12.571 20.15 32.175 11.25 50.625-3.3009 6.8438-6.6731 10.763-11.25 16.875-10.265 13.706-26.915 27.073-42.188 36.562-5.7141 9.9103-10.209 21.04-23.438 23.438-1.5112 8.8012-3.9188 16.706-7.5 23.438-18.974 9.1678-60.385 10.552-82.5 2.8125-7.7353-2.7075-12.368-5.5744-15.938-12.188-0.47344-34.286-13.25-57.363-22.5-85.312-7.3828-22.306-15.2-44.158-23.438-65.625-4.6828-5.9419-10.246-11.003-13.125-18.75 0.73313-4.2666 4.3519-5.6484 5.625-9.375 23.428-9.7031 54.309-11.944 85.312-14.062zm-59.5 161.22c3.0894 0.0767 5.8212 0.3714 7.9376 0.97046 4.4625 1.2562 7.7719 4.7906 7.5 10.312-21.931-0.0562-41.957 1.7934-56.25 9.375 12.526 2.2153 31.927-6.4828 45.938-3.75 1.4044 0.27375 5.6991 0.3975 5.625 3.75-14.817 1.1203-29.773 2.1019-40.312 7.5 11.247 3.5081 31.925-6.5738 40.312 2.8125-8.7628 0.92532-17.418 1.9575-24.375 4.6875 7.1981 4.3472 25.638-1.8328 32.812 4.6875-5.6353 2.1769-15.305 0.31969-22.5 0.9375 1.7934 4.7691 10.429 2.6962 15 4.6875-8.8275 1.6238-18.15-0.82593-28.125-2.8125-17.322-3.4509-37.298-6.9881-46.875-17.812-1.9078-2.3766 2.6906-4.2516 1.875-8.4375-4.6003 1.9622-6.3656 6.7594-5.625 14.062 12.649 11.726 36.386 12.364 54.375 18.75 30.249 4.5066 61.299 9.5072 94.688 8.4375 28.86-0.92343 58.278-1.2885 83.438-11.25 6.7595-2.6763 16.108 6.3319 22.5 6.5625-8.6362 5.1169-17.716 8.4928-30.938 10.312-10.396 1.4306-22.963 4.4766-36.562 5.625-5.0662 0.4275-10.091-0.27843-15 0-12.403 0.70407-24.618 2.7862-37.5 1.875-2.6316-0.18562-4.8797-1.7269-7.5-1.875-15.085-0.85593-31.337-1.3988-45.938-3.75-4.4138-0.71062-9.0591-2.7516-14.062-3.75-5.2162-1.0416-11.014-0.645-15.938-1.875-6.3881-1.5956-15.92-4.7109-24.375-7.5-8.04-2.6512-12.723-4.0528-18.75-6.5625-3.4631-1.4419-4.8544-2.3653-8.4375-3.75-11.89-4.5938-17.639-17.481-4.6875-26.25 3.9141-2.6503 13.722-5.7722 19.688-7.5 6.6525-1.9275 14.201-4.4925 21.562-5.625 8.7455-1.3458 21.232-3.0756 30.5-2.8455zm157.94 7.533c14.494 2.0719 26.685 5.4198 38.085 10.585-12.422 7.7654-14.904 11.621-24.776 17.991-4.5845 2.989-11.67 7.0228-23.622 10.798-4.1944 1.1578-13.597 3.1716-20.625 3.75 8.0147-5.4225 14.862-12.012 15-25.312 11.035-0.72281 19.387 1.2384 30 0.9375 0.76875-9.5184-11.777-5.7234-18.75-7.5-0.89906-2.8538 3.9028-7.0622 4.6875-11.25zm-168.06 59.044c3.6854-0.29307 7.8231 1.1382 11.499 1.8933 29.089 5.9775 74.425 9.6609 113.44 7.5 11.062-0.61874 24.759-1.7812 32.812-3.75-6.8334 8.2781-25.72 7.0416-42.188 8.4375-25.019 2.1206-52.036 1.9903-77.812-1.875-14.493-2.1731-29.168-5.9728-41.25-11.25 1.0941-0.57023 2.2725-0.85812 3.501-0.95581z" fill="#4d4d4d" stroke-width=".9375"/><path d="m-367.11-668.9c-21.931-0.0562-41.957 1.7934-56.25 9.375 12.526 2.2153 31.927-6.4828 45.938-3.75 1.4044 0.27375 5.6991 0.3975 5.625 3.75-14.817 1.1203-29.773 2.1019-40.312 7.5 11.247 3.5081 31.925-6.5738 40.312 2.8125-8.7628 0.92532-17.418 1.9575-24.375 4.6875 7.1981 4.3472 25.638-1.8328 32.812 4.6875-5.6353 2.1769-15.305 0.31969-22.5 0.9375 1.7934 4.7691 10.429 2.6962 15 4.6875-8.8275 1.6238-18.15-0.82593-28.125-2.8125-17.322-3.4509-37.298-6.9881-46.875-17.812-1.9078-2.3766 2.6906-4.2516 1.875-8.4375-4.6003 1.9622-6.3656 6.7594-5.625 14.062 12.649 11.726 36.386 12.364 54.375 18.75 30.249 4.5066 61.299 9.5072 94.688 8.4375 28.86-0.92343 57.756-2.8359 83.438-11.25 5.6818-3.6976 12.278-8.1334 18.112-11.577 5.6554-3.3385 13.776-12.923 16.47-12.82 2.2762 0.0865 1.9175 6.7124 0.0686 14.487-1.5027 6.3189-4.3414 11.233-12.151 16.473-8.6362 5.1169-17.716 8.4928-30.938 10.312-10.396 1.4306-22.963 4.4766-36.562 5.625-5.0662 0.4275-10.091-0.27843-15 0-12.403 0.70407-24.618 2.7862-37.5 1.875-2.6316-0.18562-4.8797-1.7269-7.5-1.875-15.085-0.85593-31.337-1.3988-45.938-3.75-4.4138-0.71062-9.0591-2.7516-14.062-3.75-5.2162-1.0416-11.014-0.645-15.938-1.875-6.3881-1.5956-15.92-4.7109-24.375-7.5-8.04-2.6512-12.723-4.0528-18.75-6.5625-3.4631-1.4419-4.8544-2.3653-8.4375-3.75-11.89-4.5938-17.639-17.481-4.6875-26.25 3.9141-2.6503 13.722-5.7722 19.688-7.5 6.6525-1.9275 14.201-4.4925 21.562-5.625 11.661-1.7944 29.972-4.2712 38.438-1.875 4.4625 1.2562 7.7719 4.7906 7.5 10.312z" fill="#fff" fill-rule="evenodd" stroke-width=".9375"/><path d="m-390.32-818.78c11.654 16.485 128.56 10.875 135.68 10.852 18.519-0.0584 41.879-8.0254 42.231-14.324-7.5491-0.40257-21.362-2.2995-35.185-3.0024-10.897-0.55398-25.318-3.3921-31.625-4.1035-2.3393-0.26387-1.5704 4.9179-0.16569 7.0626 1.2474 1.9044-4.3883-6.055-6.6857-6.2388-33.331 25.834-8.5751-0.42316-37.672-0.28029-27.295 0.86557-51.335 2.5328-66.577 10.034z" fill="#483a41" stroke="#28170b" stroke-width=".9375px"/><path d="m-162.2-722.54a95.803 125.65 0 1 1-191.61 0 95.803 125.65 0 1 1 191.61 0z" fill="none" stroke-width=".9375"/><g transform="translate(-106.4 -101)" fill="#4d4d4d" fill-rule="evenodd" stroke-width=".9375"><path d="m-278.53-686.48c4.3556-0.91781 5.6597 1.215 8.4375 1.875 8.0175 1.2459 18.215 1.0856 28.125 2.8125 3.8062 0.66375 9.3047 1.5675 11.25 4.6875-16.026-1.1616-33.847-0.52875-47.812-3.75z"/><path d="m-277.6-676.17c7.3191 1.3134 15.485 3.9141 24.375 4.6875 5.1319 0.44625 13.119-2.3531 15.938 3.75-15.641-3e-3 -27.533 2.3719-40.312-2.8125z"/><path d="m-274.78-663.98c9.7772 0.61219 19.198 1.9444 29.062 2.8125 4.5816 0.40313 11.092-0.79968 13.125 3.75-13.72-1.2797-32.902 2.9025-42.188-2.8125z"/><path d="m-272.91-653.67c15.26 3.99 30.735 2.1497 43.125 5.625-1.1822 3.4988-6.4322 1.8028-9.375 1.875-9.3197 0.22782-21.715-0.17062-31.875 0-0.91875-2.2031-1.6406-4.6125-1.875-7.5z"/><path d="m-269.16-641.48c15.116 1.9659 27.231 1.3397 40.312 4.6875-0.71344 3.4631-5.8153 1.7888-8.4375 1.875-8.7028 0.28407-20.545-0.21281-30 0 0.10313-2.9156-2.9438-2.6812-1.875-6.5625z"/><path d="m-265.41-630.23c12.529 2.3662 22.397 1.7962 34.688 3.75-2.07 4.3566-10.018 2.7825-15.938 2.8125-6.3488 0.0319-12.636 0.24844-16.875-0.9375 1.0031-3.5062-2.325-2.6719-1.875-5.625z"/><path d="m-260.72-619.92c7.1522 1.9697 14.173 2.0644 22.5 2.8125 2.9484 0.26438 7.9209-0.0197 9.375 2.8125-2.3784 3.4603-9.0703 1.8488-14.062 1.875-5.5181 0.0291-11.292-0.0225-15.938 0 0.25313-3.375-1.725-4.5188-1.875-7.5z"/><path d="m-256.03-607.73c0.79781-0.1725 0.88406 0.36563 0.9375 0.9375 4.1681-0.52125 9.015 1.4859 14.062 1.875 6.63 0.51094 14.878-2.3569 17.812 2.8125-8.3503 1.8788-21.75 2.9362-30.938 0.9375-0.15-2.6625-1.7156-3.9094-1.875-6.5625z"/><path d="m-249.47-594.6c10.075 2.7375 24.833 0.79219 35.625 2.8125-3.5869 4.1531-11.419 3.2175-17.812 3.75-5.1853 0.43219-9.9956 1.5769-15 0.9375-1.1906-2.25-3.4219-3.4594-2.8125-7.5z"/><path d="m-245.72-582.42c10.126 2.0606 24.791-0.41625 34.688 1.875-2.7084 4.2047-10.364 3.2259-15.938 3.75-6.3356 0.59532-12.406 1.6369-17.812 0 0.68438-2.8687-1.6125-2.7656-0.9375-5.625z"/><path d="m-242.91-572.1c7.9144 1.1475 20.537 1.5112 30.938 2.8125-5.2547 5.655-23.858 6.0572-30.938 1.875z"/><path d="m-241.03-561.79c11.774 2.6391 22.09 0.42282 32.812 4.6875-2.1909 3.12-12.852 3.6328-20.625 2.8125-4.7072-0.49687-9.2944-2.4609-12.188-3.75z"/><path d="m-242.91-551.48c20.011 7.1653 42.263 6.8494 64.688 7.5-4.7128 5.0522-14.359 3.2869-22.5 3.75-14.121 0.8025-29.829 1.5216-40.312-3.75-0.28125-2.8406-2.8969-3.3562-1.875-7.5z"/></g><path d="m-243.07-677.15c8.2181-27.095 21.397-49.228 29.062-76.875 14.302-3.1988 11.848-23.152 32.812-19.688 4.0303 4.1166 6.4809 6.8991 5.625 15.938-1.6762 17.705-16.492 31.569-29.062 42.188-0.93094 0.78657-0.95062 2.8838-1.875 3.75-0.67125 0.62813-3.6309 0.9975-4.6875 1.875-3.7359 3.1022-11.334 7.2834-15.938 11.25-7.1344 6.15-9.675 16.706-15.938 21.562zm46.875-55.312c1.0931-1.2459 0.80156-3.1462 1.875-4.6875 1.4475-2.0784 4.5909-3.1819 5.625-4.6875 2.6128-3.8062 7.4419-15.339 4.6875-18.75-1.6331 0.0703-2.9156-0.20906-3.75-0.9375-14.732 9.0366-28.138 24.338-29.062 44.062 4.725-3.5438 14.4-7.9031 20.625-15z" fill="#4d4d4d" fill-rule="evenodd" stroke-width=".9375"/></g></g></svg>
