<?xml version="1.0" encoding="UTF-8"?>
<svg width="535" height="535" version="1.1" viewBox="0 0 501.56 501.56" xml:space="preserve" xmlns="http://www.w3.org/2000/svg" xmlns:xlink="http://www.w3.org/1999/xlink"><g transform="translate(-156.41 933.31)"><g transform="translate(8.3425e-7 .044304)" opacity=".8"><path id="a" d="m451.21-770.38-244.4-0.012 27.621-48.894 65.558 0.18172-32.557-56.734 13.96-24.157 28.526-0.0314 46.298 80.779 66.689 0.13524z" color="#000000" color-rendering="auto" fill-rule="evenodd" image-rendering="auto" shape-rendering="auto" solid-color="#000000" style="isolation:auto;mix-blend-mode:normal"/><g id="e"><use id="b" transform="rotate(240 407.25 -682.85)" fill="#715b64" xlink:href="#a"/><use transform="rotate(240 407.2 -682.64)" xlink:href="#b"/><use transform="rotate(120 407.25 -682.85)" xlink:href="#b"/></g><g id="f"><use id="d" transform="rotate(-60 407.62 -682.8)" fill="#545e75" xlink:href="#a"/><use id="c" transform="rotate(239.7 406.82 -682.12)" xlink:href="#d"/><use transform="rotate(240 407.43 -682.82)" xlink:href="#c"/></g></g><g id="g" transform="matrix(1.0804 0 0 1.0804 -46.638 80.648)"><path d="m321.74-740.55h1.9945c3.6952 8.1801 15.325 11.804 25.264 11.993-0.45476 2.2042-4.396 1.3534-6.6484 1.2625-2.8861-0.11677-6.818-0.76-9.3078-1.2625-1.6222-0.32761-4.3521-0.84774-5.3188-1.2625-2.8768-1.234-5.1771-4.9728-6.6484-8.206-0.0798-1.1362 0.81776-1.3319 0.66485-2.5249z" fill="#4d4d4d" fill-rule="evenodd" stroke-width=".64782"/><path d="m327.06-729.19c27.571 11.771 75.586 9.1876 109.7 7.5748-14.438 4.6818-37.647 4.358-59.836 4.4186-7.5732 0.0208-15.989-1.2669-24.599-2.5249-11.083-1.6222-23.535-1.0668-25.264-9.4684z" fill="#4d4d4d" fill-rule="evenodd" stroke-width=".64782"/><path d="m498.6-879.44c-4.1586 0.2974-8.6746 1.8836-9.4116 6.9928 4.2164-1.8003 8.6682 0.23764 11.968 1.2634 6.0667 6.5092 7.9503 17.853 3.9899 25.248-3.636 6.7889-10.106 11.523-17.287 17.199-10.319 7.1861-11.52 6.0057-26.594 11.838-12.995 5.7865-28.265 6.4438-40.554 11.362-7.7055 3.0836-15.944 7.2655-22.604 11.993-6.3014 4.4735-11.848 12.12-15.293 20.83-1.8283 4.6219-2.7051 8.8794-3.3234 15.78-24.765 3.2085-54.562 1.6411-67.813 15.782-1.0372 10.663 3.4118 16.118 7.9779 21.462 4.505 11.949 7.8093 24.245 11.966 35.98 4.1772 11.793 10.036 22.619 13.962 34.087-16.138 1.2353-38.602 3.223-54.516 9.4684-8.3704 3.2849-15.285 6.7725-15.291 15.148 0.73485 4.9646 1.0266 5.0392 2.6587 7.5769 5.3327 5.0366 11.582 9.2034 19.281 11.993 8.1744 2.9173 17.945 4.6235 22.69 7.359 4.745 2.7355 7.9224 6.7445 12.546 8.421 4.7078 1.7075 10.442 1.6722 15.956 2.525 15.113 2.3368 25.768 4.1578 44.236 3.3417 9.3528-0.77095 28.168-2.6076 34.88-3.3417 4.9127-0.53713 28.862-6.3469 36.412-10.203 4.4447-2.2696 11.158-6.854 15.476-11.406 4.3183-4.5517 10.221-15.713 4.9493-21.645-5.2713-5.9323-10.393-6.4432-18.276-8.8184-7.883-2.3752-8.7928-1.6522-12.634-4.107 0.46673-1.5648 1.9736-1.6817 3.3252-2.525 7.5061-4.6818 18.518-14.591 25.263-22.094 5.7097-6.3495 11.455-15.584 12.632-22.725 3.1188-18.916-7.3342-28.88-22.604-33.455 14.881-24.346-24.271-29.279-45.873-32.192 0.90951-2.2926 2.8453-2.6533 5.982-3.7885 31.055-8.8101 76.183-4.2576 98.397-21.462 0.56578-0.11615 12.23-9.1961 12.268-8.811 10.082-9.4865 19.745-32.807 14.326-46.106-3.5735-8.7716-9.4372-12.322-17.948-15.469-6.4131-0.97715-9.6924-1.5489-14.63-1.5747v-4e-3c-0.89754-3.0028-1.2692-6.3067-2.6587-9.4647-3.1141-7.0849-10.343-15.544-19.946-16.414-1.154-0.1047-2.4993-0.1469-3.8855-0.048z" fill="#fff" stroke-width=".64782"/><path d="m498.69-879.48c-4.1586 0.2974-8.6746 1.8836-9.4116 6.9928 4.2164-1.8003 8.6682 0.23764 11.968 1.2634 6.0667 6.5092 7.9503 17.853 3.9899 25.248-3.636 6.7889-10.106 11.523-17.287 17.199-10.319 7.1861-11.52 6.0057-26.594 11.838-12.995 5.7865-28.265 6.4438-40.554 11.362-7.7055 3.0836-15.944 7.2655-22.604 11.993-6.3014 4.4735-11.848 12.12-15.293 20.83-1.8283 4.6219-2.7051 8.8794-3.3234 15.78-24.765 3.2085-54.562 1.6411-67.813 15.782-1.0372 10.663 3.4118 16.118 7.9779 21.462 4.505 11.949 7.8093 24.245 11.966 35.98 4.1772 11.793 10.036 22.619 13.962 34.087-16.138 1.2353-38.602 3.223-54.516 9.4684-8.3704 3.2849-15.285 6.7725-15.291 15.148 0.73485 4.9646 1.0266 5.0392 2.6587 7.5769 5.3327 5.0366 11.582 9.2034 19.281 11.993 8.1744 2.9173 17.945 4.6235 22.69 7.359 4.745 2.7355 7.9224 6.7445 12.546 8.421 4.7078 1.7075 10.442 1.6722 15.956 2.525 15.113 2.3368 25.768 4.1578 44.236 3.3417 9.3528-0.77095 28.168-2.6076 34.88-3.3417 4.9127-0.53713 28.862-6.3469 36.412-10.203 4.4447-2.2696 11.158-6.854 15.476-11.406 4.3183-4.5517 10.221-15.713 4.9493-21.645-5.2713-5.9323-10.393-6.4432-18.276-8.8184-7.883-2.3752-8.7928-1.6522-12.634-4.107 0.46673-1.5648 1.9736-1.6817 3.3252-2.525 7.5061-4.6818 18.518-14.591 25.263-22.094 5.7097-6.3495 11.455-15.584 12.632-22.725 3.1188-18.916-7.3342-28.88-22.604-33.455 14.881-24.346-24.271-29.279-45.873-32.192 0.90951-2.2926 2.8453-2.6533 5.982-3.7885 31.055-8.8101 76.183-4.2576 98.397-21.462 0.56578-0.11615 12.23-9.1961 12.268-8.811 10.082-9.4865 19.745-32.807 14.326-46.106-3.5735-8.7716-9.4372-12.322-17.948-15.469-6.4131-0.97715-9.6924-1.5489-14.63-1.5747v-4e-3c-0.89754-3.0028-1.2692-6.3067-2.6587-9.4647-3.1141-7.0849-10.343-15.544-19.946-16.414-1.154-0.10464-2.4993-0.14687-3.8855-0.0476zm23.831 37.925c7.6038 7.5034 2.0848 27.628-3.9899 36.61-2.9865 4.4167-8.0452 9.1235-12.631 13.257-7.0181 6.3256-19.018 11.738-29.253 15.78-13.245 5.2316-28.92 6.3813-41.885 11.362-23.009 10.219-19.812 9.0762-23.271 13.889-0.38694 3.841-3.6565 8.7615-0.66467 11.993-1.4288 1.3149-2.7282-2.8486-3.988-3.7885-0.46938-4.2696 0.0934-8.0345 1.3293-11.362 4.5635-12.287 16.71-20.587 29.918-25.88 18.41-7.3791 40.383-13.123 55.847-23.355 7.5694-6.209 16.326-13.428 22.651-21.644m-14.673 10.913c-9.8011 7.8279-21.687 12.891-37.231 17.675-16.076 4.9476-37.035 6.3273-51.857 13.255-3.4053 1.5913-5.4853 3.1244-9.3091 5.6818-4.4389 4.6492-9.7628 10.486-11.301 18.937-1.0638 5.8408-1.333 13.688 0 18.937 0.55116 2.1702 3.1517 4.442 1.3294 6.3116-6.423-0.0177-9.7402-9.4944-10.638-15.148-1.3463-8.478 3.1799-16.144 4.6545-22.094 1.7312-6.9846 8.0608-12.903 13.297-17.675 3.1653-2.8841 7.2658-5.567 12.632-8.1866 6.1857-3.0198 11.034-4.0164 19.279-6.3318 16.478-4.6282 37.213-8.6301 51.859-15.78 8.2806-4.0424 13.558-10.371 19.944-15.78 3.3541-5.8117 8.5972-14.692 6.6486-27.144-0.75858-4.8447-3.6109-9.5057-6.6486-11.993 0.48134-0.13635 1.0334-0.1233 1.615-9e-3v-1.5e-4c1.7448 0.34359 3.767 1.6068 5.0336 2.5342 2.3017 1.6854 9.1746 9.462 9.9738 12.625 3.0603 12.108-4.285 26.35-8.9588 34.175m12.282-25.34c8.4408-0.0189 12.578 0.58815 19.281 5.6818 3.7331 3.5172 7.4041 8.2249 7.9779 15.15 0.88235 11.55-4.5942 22.267-11.301 31.56-14.777 17.064-41.13 22.325-64.492 23.987 16.656-6.5017 36.586-16.398 47.869-32.192 4.0582-5.6811 10.492-16.556 8.6426-28.405v-4e-3c-1.0172-6.5402-5.4448-9.5713-7.9779-15.778zm-144.94 97.211c0.60235 2.3974 1.4198 7.1659 1.3293 8.2068-16.235 1.4556-33.72 0.47229-44.544 5.6799-4.0728 0.9216-0.70077 4.3688 4.6545 5.6818 9.4248 2.3103 21.035 1.8048 33.241 2.525 23.789 1.4032 51.213 2.469 69.144-1.2634 6.1418-1.2782 12.502-3.0618 15.291-7.5732-1.4474-3.1612-6.2043-3.5453-9.9719-4.4202-8.5472-1.9852-20.125-4.0186-29.918-2.5232 12.048 1.3963 25.092 1.8446 34.57 5.6799-11.147-1.467-31.01-1.4429-39.89-3.7866 0.0538-3.7362 2.2922-6.2884 4.6527-6.9434 8.6735-0.35854 18.985 0.0924 27.259 1.8933 8.4874 1.8476 25.494 6.5253 25.265 13.887-0.0133 0.41977-1.2356 3.656-1.3293 3.7866-2.2206 3.1025-8.7234 3.9489-11.968 6.3135 0.13629 2.8159 4.8478 1.2882 5.3192 3.7866 0.56977 6.715-3.0784 14.096-3.9899 22.725 4.1413-3.4326 4.1981-10.743 5.9839-16.412 3.2471-3.7975 7.9609-4.0961 13.962-2.525 10.99 8.4642 14.289 21.662 7.9779 34.085-2.3409 4.608-4.7321 7.2485-7.9779 11.364-7.2794 9.2286-19.087 18.227-29.918 24.617-4.0522 6.6727-7.2414 14.168-16.622 15.782-1.0717 5.926-2.7777 11.248-5.3174 15.78-13.456 6.1728-42.825 7.1041-58.508 1.8933-5.4856-1.823-8.7702-3.7523-11.301-8.205-0.33575-23.085-9.3958-38.623-15.956-57.442-5.2356-15.019-10.78-29.733-16.622-44.187-3.3209-4.0007-7.2655-7.4074-9.3072-12.623 0.51991-2.8727 3.087-3.8043 3.9899-6.3135 16.614-6.5332 38.514-8.0418 60.5-9.4684zm-42.195 108.55c2.1909 0.0516 4.1278 0.2485 5.6287 0.65185 3.1646 0.84585 5.512 3.2254 5.3192 6.9434-15.553-0.0378-29.755 1.2087-39.891 6.3135 8.883 1.4916 22.642-4.3651 32.578-2.525 0.99594 0.18431 4.0406 0.26776 3.988 2.525-10.508 0.75433-21.114 1.4154-28.588 5.05 7.9761 2.3621 22.64-4.4266 28.588 1.8933-6.2143 0.62303-12.351 1.3186-17.285 3.1567 5.1047 2.927 18.181-1.2353 23.269 3.1549-3.9964 1.4657-10.853 0.21574-15.956 0.63172 1.2718 3.2111 7.3948 1.816 10.637 3.1567-6.2602 1.0933-12.87-0.55573-19.944-1.8933-12.284-2.3236-26.451-4.7052-33.243-11.993-1.353-1.6002 1.9078-2.8633 1.3294-5.6818-3.2624 1.3212-4.5151 4.5511-3.9899 9.4684 8.9701 7.8954 25.805 8.3252 38.562 12.625 21.452 3.0343 43.471 6.4002 67.148 5.6799 20.467-0.62175 41.33-0.86785 59.172-7.5751 2.9714-1.117 9.4578-4.8298 26.125-14.917 1.0969-0.66379 2.5414 4.6744-1.0965 9.3486-13.052 16.771-52.657 20.374-56.942 20.718-19.702 1.5784-56.978 0.24981-75.126-2.525-3.1301-0.47847-6.4255-1.8528-9.9738-2.525-3.6992-0.70129-7.8095-0.43342-11.301-1.2616-4.5302-1.0744-11.291-3.1721-17.287-5.05-5.7017-1.7851-9.0228-2.7285-13.297-4.4183-2.4559-0.97083-3.4428-1.5927-5.9839-2.525-8.4322-3.093-12.508-11.771-3.3234-17.675 2.7757-1.7845 9.7314-3.8867 13.962-5.05 4.7177-1.2978 10.071-3.0241 15.291-3.7866 6.202-0.90614 15.058-2.0703 21.63-1.9153zm112 5.072c10.278 1.395 18.924 3.6484 27.008 7.1265-8.8093 5.2286-10.57 7.8252-17.571 12.114-3.2512 2.0126-8.275 4.7272-16.75 7.2693-2.9745 0.77957-9.6421 2.1356-14.626 2.525 5.6837-3.651 10.539-8.0864 10.637-17.042 7.8259-0.48668 13.748 0.83251 21.275 0.62988 0.54517-6.4089-8.352-3.8539-13.297-5.05-0.63758-1.9215 2.7687-4.7535 3.3252-7.5732zm-119.18 39.754c2.6136-0.19733 5.5468 0.76596 8.1537 1.2744 20.629 4.0247 52.781 6.505 80.447 5.05 7.8451-0.4166 17.558-1.1994 23.269-2.525-4.846 5.5738-18.24 4.7419-29.918 5.6818-17.743 1.4278-36.903 1.3391-55.182-1.2634-10.278-1.4632-20.684-4.02-29.253-7.5732 0.77587-0.38394 1.6117-0.57875 2.4829-0.64453z" fill="#4d4d4d" stroke-width=".64782"/><path d="m331.88-736.68c8.2647 11.1 91.17 7.3223 96.216 7.3071 13.133-0.0393 29.699-5.4036 29.949-9.6446-5.3536-0.27106-15.149-1.5483-24.952-2.0215-7.7275-0.373-17.955-2.2839-22.427-2.763-1.659-0.17767-1.1137 3.3113-0.1175 4.7553 0.88464 1.2823-3.1121-4.0769-4.7413-4.2006-23.637 17.394-6.0812-0.28492-26.715-0.18872-19.357 0.58279-36.405 1.7054-47.214 6.756z" fill="#483a41" stroke="#28170b" stroke-width=".64782px"/><path d="m493.65-671.89a67.94 84.604 0 1 1-135.88 0 67.94 84.604 0 1 1 135.88 0z" fill="none" stroke-width=".64782"/><path d="m436.3-641.33c5.828-18.243 15.174-33.146 20.61-51.761 10.142-2.1538 8.4023-15.589 23.27-13.256 3.6845 1.4908 4.5961 4.6452 3.989 10.731-1.6588 11.356-16.504 24.909-25.264 32.193-2.6494 2.0887-8.0379 4.904-11.302 7.5748-5.0594 4.1409-6.8612 11.249-11.302 14.518zm33.242-37.243c5.6016-5.5552 12.781-14.072 8.643-18.937-0.86423-0.89326-1.8112-0.96144-2.6594-0.63123-10.447 6.0844-19.955 16.387-20.61 29.668 3.3508-2.386 10.212-5.3213 14.627-10.1z" fill="#4d4d4d" fill-rule="evenodd" stroke-width=".64782"/></g></g></svg>
